<svg xmlns="http://www.w3.org/2000/svg" xmlns:xlink="http://www.w3.org/1999/xlink" width="1024" zoomAndPan="magnify" viewBox="0 0 768 767.999994" height="1024" preserveAspectRatio="xMidYMid meet" version="1.0"><rect x="-76.8" width="921.6" fill="#ffffff" y="-76.799999" height="921.599993" fill-opacity="1"/><rect x="-76.8" width="921.6" fill="#ffffff" y="-76.799999" height="921.599993" fill-opacity="1"/><path fill="#000000" d="M 688 768 L 368 768 C 323.902344 768 288 732.097656 288 688 L 288 560 C 288 551.167969 295.167969 544 304 544 C 312.832031 544 320 551.167969 320 560 L 320 688 C 320 714.464844 341.535156 736 368 736 L 688 736 C 714.464844 736 736 714.464844 736 688 L 736 368 C 736 341.535156 714.464844 320 688 320 L 528 320 C 519.167969 320 512 312.832031 512 304 C 512 295.167969 519.167969 288 528 288 L 688 288 C 732.097656 288 768 323.902344 768 368 L 768 688 C 768 732.097656 732.097656 768 688 768 Z M 688 768 " fill-opacity="1" fill-rule="nonzero"/><path fill="#000000" d="M 240 480 L 224 480 C 215.167969 480 208 472.832031 208 464 C 208 455.167969 215.167969 448 224 448 L 240 448 C 248.832031 448 256 455.167969 256 464 C 256 472.832031 248.832031 480 240 480 Z M 240 480 " fill-opacity="1" fill-rule="nonzero"/><path fill="#000000" d="M 159.328125 480 L 126.976562 480 C 118.144531 480 110.976562 472.832031 110.976562 464 C 110.976562 455.167969 118.144531 448 126.976562 448 L 159.328125 448 C 168.160156 448 175.328125 455.167969 175.328125 464 C 175.328125 472.832031 168.160156 480 159.328125 480 Z M 62.527344 477.566406 C 61.089844 477.566406 59.617188 477.375 58.144531 476.960938 C 45.183594 473.28125 33.246094 466.304688 23.648438 456.734375 C 17.375 450.527344 17.34375 440.382812 23.585938 434.113281 C 29.824219 427.871094 39.96875 427.808594 46.207031 434.046875 C 51.96875 439.777344 59.136719 443.96875 66.878906 446.175781 C 75.390625 448.574219 80.320312 457.441406 77.886719 465.953125 C 75.902344 472.992188 69.472656 477.566406 62.527344 477.566406 Z M 16 401.824219 C 7.167969 401.824219 0 394.65625 0 385.824219 L 0 353.472656 C 0 344.640625 7.167969 337.472656 16 337.472656 C 24.832031 337.472656 32 344.640625 32 353.472656 L 32 385.824219 C 32 394.65625 24.832031 401.824219 16 401.824219 Z M 16 304.769531 C 7.167969 304.769531 0 297.601562 0 288.769531 L 0 256.414062 C 0 247.585938 7.167969 240.414062 16 240.414062 C 24.832031 240.414062 32 247.585938 32 256.414062 L 32 288.769531 C 32 297.601562 24.832031 304.769531 16 304.769531 Z M 16 207.742188 C 7.167969 207.742188 0 200.574219 0 191.742188 L 0 159.390625 C 0 150.558594 7.167969 143.390625 16 143.390625 C 24.832031 143.390625 32 150.558594 32 159.390625 L 32 191.742188 C 32 200.574219 24.832031 207.742188 16 207.742188 Z M 464 174.753906 C 455.167969 174.753906 448 167.585938 448 158.753906 L 448 126.398438 C 448 117.566406 455.167969 110.398438 464 110.398438 C 472.832031 110.398438 480 117.535156 480 126.398438 L 480 158.753906 C 480 167.585938 472.832031 174.753906 464 174.753906 Z M 16 110.6875 C 7.167969 110.6875 0 103.519531 0 94.6875 L 0 80 C 0 72.640625 1.023438 65.3125 3.007812 58.238281 C 5.40625 49.695312 14.304688 44.671875 22.753906 47.199219 C 31.265625 49.601562 36.191406 58.433594 33.792969 66.945312 C 32.609375 71.167969 32 75.550781 32 80 L 32 94.6875 C 32 103.519531 24.832031 110.6875 16 110.6875 Z M 461.40625 77.953125 C 454.464844 77.953125 448.097656 73.40625 446.046875 66.433594 C 443.808594 58.71875 439.519531 51.617188 433.761719 45.855469 C 427.488281 39.648438 427.425781 29.503906 433.632812 23.230469 C 439.839844 16.929688 449.984375 16.894531 456.257812 23.105469 C 465.886719 32.640625 472.992188 44.511719 476.769531 57.441406 C 479.265625 65.921875 474.367188 74.785156 465.886719 77.28125 C 464.382812 77.761719 462.878906 77.953125 461.40625 77.953125 Z M 62.015625 34.558594 C 55.105469 34.558594 48.703125 30.046875 46.65625 23.070312 C 44.191406 14.59375 49.054688 5.695312 57.535156 3.199219 C 64.800781 1.089844 72.351562 0 80 0 L 94.113281 0 C 102.945312 0 110.113281 7.167969 110.113281 16 C 110.113281 24.832031 102.976562 32 94.113281 32 L 80 32 C 75.390625 32 70.878906 32.640625 66.527344 33.921875 C 65.023438 34.367188 63.519531 34.558594 62.015625 34.558594 Z M 385.246094 32 L 352.894531 32 C 344.0625 32 336.894531 24.832031 336.894531 16 C 336.894531 7.167969 344.0625 0 352.894531 0 L 385.246094 0 C 394.078125 0 401.246094 7.167969 401.246094 16 C 401.246094 24.832031 394.078125 32 385.246094 32 Z M 288.191406 32 L 255.871094 32 C 247.039062 32 239.871094 24.832031 239.871094 16 C 239.871094 7.167969 247.007812 0 255.871094 0 L 288.222656 0 C 297.054688 0 304.222656 7.167969 304.222656 16 C 304.222656 24.832031 297.054688 32 288.191406 32 Z M 191.167969 32 L 158.816406 32 C 149.984375 32 142.816406 24.832031 142.816406 16 C 142.816406 7.167969 149.984375 0 158.816406 0 L 191.167969 0 C 200 0 207.167969 7.167969 207.167969 16 C 207.167969 24.832031 200 32 191.167969 32 Z M 191.167969 32 " fill-opacity="1" fill-rule="nonzero"/><path fill="#000000" d="M 464 256 C 455.167969 256 448 248.832031 448 240 L 448 224 C 448 215.167969 455.167969 208 464 208 C 472.832031 208 480 215.167969 480 224 L 480 240 C 480 248.832031 472.832031 256 464 256 Z M 464 256 " fill-opacity="1" fill-rule="nonzero"/><path fill="#000000" d="M 401.601562 576 L 336 576 C 291.902344 576 256 540.097656 256 496 L 256 438.625 L 241.664062 424.289062 C 232.222656 414.878906 227.039062 402.304688 227.039062 388.960938 C 227.039062 375.617188 232.222656 363.070312 241.664062 353.632812 C 249.472656 345.824219 259.425781 340.929688 270.207031 339.457031 C 269.246094 325.535156 274.078125 311.296875 284.703125 300.671875 C 295.808594 289.566406 311.742188 284.382812 327.007812 286.527344 C 328.832031 277.054688 333.375 268 340.703125 260.671875 C 354.144531 247.230469 375.007812 242.71875 392.449219 248.800781 C 394.785156 241.441406 398.878906 234.496094 404.703125 228.671875 C 424.160156 209.214844 455.871094 209.214844 475.328125 228.671875 L 524.929688 278.273438 C 557.855469 311.230469 576 355.039062 576 401.601562 C 576 497.761719 497.761719 576 401.601562 576 Z M 288 470.625 L 288 496 C 288 522.464844 309.535156 544 336 544 L 401.601562 544 C 480.128906 544 544 480.128906 544 401.601562 C 544 363.585938 529.183594 327.808594 502.304688 300.929688 L 452.703125 251.328125 C 445.695312 244.320312 434.335938 244.320312 427.328125 251.328125 C 423.9375 254.6875 422.046875 259.199219 422.046875 264 C 422.046875 268.800781 423.902344 273.3125 427.296875 276.671875 C 430.433594 279.808594 432 283.902344 432 288 C 432 292.097656 430.433594 296.191406 427.328125 299.328125 C 421.089844 305.566406 410.945312 305.566406 404.703125 299.328125 L 388.703125 283.328125 C 381.921875 276.542969 370.113281 276.542969 363.328125 283.328125 C 356.320312 290.335938 356.320312 301.695312 363.328125 308.703125 L 379.328125 324.703125 C 382.433594 327.808594 384 331.902344 384 336 C 384 340.097656 382.433594 344.191406 379.328125 347.328125 C 373.089844 353.566406 362.945312 353.566406 356.703125 347.328125 L 332.703125 323.328125 C 325.921875 316.542969 314.113281 316.542969 307.328125 323.328125 C 300.320312 330.335938 300.320312 341.695312 307.328125 348.703125 L 347.328125 388.703125 C 350.433594 391.808594 352 395.902344 352 400 C 352 404.097656 350.433594 408.191406 347.328125 411.328125 C 341.089844 417.566406 330.945312 417.566406 324.703125 411.328125 L 289.664062 376.289062 C 282.878906 369.503906 271.070312 369.503906 264.289062 376.289062 C 260.894531 379.679688 259.039062 384.191406 259.039062 388.960938 C 259.039062 393.726562 260.894531 398.273438 264.289062 401.632812 L 347.328125 484.671875 C 350.433594 487.808594 352 491.902344 352 496 C 352 500.097656 350.433594 504.191406 347.328125 507.328125 C 341.089844 513.566406 330.945312 513.566406 324.703125 507.328125 Z M 288 470.625 " fill-opacity="1" fill-rule="nonzero"/></svg>