<svg xmlns="http://www.w3.org/2000/svg" xmlns:xlink="http://www.w3.org/1999/xlink" width="1024" zoomAndPan="magnify" viewBox="0 0 768 767.999994" height="1024" preserveAspectRatio="xMidYMid meet" version="1.0"><rect x="-76.8" width="921.6" fill="#ffffff" y="-76.799999" height="921.599993" fill-opacity="1"/><rect x="-76.8" width="921.6" fill="#ffffff" y="-76.799999" height="921.599993" fill-opacity="1"/><path fill="#100f0d" d="M 759.386719 381.917969 L 192.734375 176.019531 C 188.015625 174.316406 182.65625 175.449219 179.035156 179.050781 C 175.4375 182.640625 174.257812 187.988281 175.996094 192.757812 L 381.894531 759.410156 C 383.734375 764.511719 388.554688 767.9375 393.992188 768.007812 C 394.042969 768.007812 394.121094 768.007812 394.164062 768.007812 C 399.523438 768.007812 404.351562 764.734375 406.3125 759.738281 L 483.71875 563.46875 L 590.140625 669.882812 C 595.242188 674.992188 603.511719 674.992188 608.613281 669.882812 C 613.71875 664.78125 613.71875 656.515625 608.613281 651.40625 L 488.109375 530.902344 C 484.96875 527.777344 480.378906 526.433594 476.21875 527.339844 C 471.902344 528.246094 468.332031 531.242188 466.722656 535.34375 L 394.683594 718.050781 L 210.113281 210.121094 L 718.042969 394.691406 L 535.320312 466.714844 C 531.242188 468.339844 528.222656 471.910156 527.332031 476.21875 C 526.441406 480.539062 527.765625 485.003906 530.882812 488.117188 L 651.386719 608.625 C 656.492188 613.726562 664.761719 613.726562 669.863281 608.625 C 674.96875 603.519531 674.96875 595.25 669.863281 590.148438 L 563.445312 483.726562 L 759.71875 406.347656 C 764.777344 404.359375 768.066406 399.445312 767.988281 394.007812 C 767.914062 388.582031 764.496094 383.761719 759.386719 381.917969 " fill-opacity="1" fill-rule="nonzero"/><path fill="#100f0d" d="M 228.820312 108.488281 C 236.046875 108.488281 241.886719 102.648438 241.886719 95.421875 L 241.886719 13.058594 C 241.886719 5.832031 236.046875 -0.0078125 228.820312 -0.0078125 C 221.601562 -0.0078125 215.761719 5.832031 215.761719 13.058594 L 215.761719 95.421875 C 215.761719 102.648438 221.601562 108.488281 228.820312 108.488281 " fill-opacity="1" fill-rule="nonzero"/><path fill="#100f0d" d="M 108.496094 228.820312 C 108.496094 221.59375 102.648438 215.753906 95.429688 215.753906 L 13.074219 215.753906 C 5.851562 215.753906 0.0117188 221.59375 0.0117188 228.820312 C 0.0117188 236.039062 5.851562 241.886719 13.074219 241.886719 L 95.429688 241.886719 C 102.648438 241.886719 108.496094 236.039062 108.496094 228.820312 " fill-opacity="1" fill-rule="nonzero"/><path fill="#100f0d" d="M 323.144531 147.570312 C 326.492188 147.570312 329.832031 146.300781 332.382812 143.75 L 390.625 85.507812 C 395.722656 80.40625 395.722656 72.140625 390.625 67.03125 C 385.515625 61.929688 377.246094 61.929688 372.148438 67.03125 L 313.90625 125.273438 C 308.804688 130.371094 308.804688 138.640625 313.90625 143.75 C 316.457031 146.300781 319.804688 147.570312 323.144531 147.570312 " fill-opacity="1" fill-rule="nonzero"/><path fill="#100f0d" d="M 125.265625 313.914062 L 67.023438 372.160156 C 61.925781 377.269531 61.925781 385.539062 67.023438 390.636719 C 69.574219 393.195312 72.921875 394.46875 76.261719 394.46875 C 79.601562 394.46875 82.949219 393.195312 85.5 390.636719 L 143.742188 332.390625 C 148.84375 327.28125 148.84375 319.015625 143.742188 313.914062 C 138.632812 308.8125 130.363281 308.8125 125.265625 313.914062 " fill-opacity="1" fill-rule="nonzero"/><path fill="#100f0d" d="M 85.5 67.03125 C 80.394531 61.929688 72.132812 61.929688 67.023438 67.03125 C 61.925781 72.140625 61.925781 80.40625 67.023438 85.507812 L 125.265625 143.75 C 127.816406 146.300781 131.15625 147.570312 134.503906 147.570312 C 137.84375 147.570312 141.183594 146.300781 143.742188 143.75 C 148.84375 138.640625 148.84375 130.371094 143.742188 125.273438 L 85.5 67.03125 " fill-opacity="1" fill-rule="nonzero"/></svg>